<?xml version="1.0" encoding="UTF-8"?>
<svg id="Camada_2" data-name="Camada 2" xmlns="http://www.w3.org/2000/svg" viewBox="0 0 284.15 54.56">
  <defs>
    <style>
      .cls-1 {
        fill: #edf2f1;
      }
    </style>
  </defs>
  <g id="Camada_1-2" data-name="Camada 1">
    <g>
      <g>
        <path class="cls-1" d="M55.65,21.47c-3.21,0-5.82,2.61-5.82,5.82s2.61,5.82,5.82,5.82,5.82-2.61,5.82-5.82-2.61-5.82-5.82-5.82Z"/>
        <path class="cls-1" d="M5.82,21.47c-3.21,0-5.82,2.61-5.82,5.82s2.61,5.82,5.82,5.82,5.82-2.61,5.82-5.82-2.61-5.82-5.82-5.82Z"/>
        <path class="cls-1" d="M16.3,11.6c.2.02.39.03.59.03,1.29,0,2.53.3,3.66.88.38.19.74.42,1.08.67.33.24.64.51.93.8.29.29.56.6.8.93,1.02,1.38,1.55,3.02,1.55,4.74,0,3.21,2.61,5.82,5.82,5.82s5.82-2.61,5.82-5.82c0-1.29.3-2.53.88-3.66.19-.38.42-.74.67-1.08.24-.33.51-.65.8-.94.29-.29.6-.55.92-.79,1.38-1.02,3.03-1.55,4.75-1.55,2,0,3.77-1.02,4.82-2.57.52-.77.86-1.68.96-2.66.02-.2.03-.39.03-.59,0-3.21-2.61-5.82-5.82-5.82s-5.82,2.61-5.82,5.82c0,.86-.13,1.7-.4,2.5-.26.8-.65,1.56-1.16,2.25-.24.33-.51.64-.79.92s-.6.56-.94.8c-.55.4-1.14.71-1.76.95-.94.38-1.94.6-2.98.6-.86,0-1.7-.13-2.5-.4s-1.56-.65-2.25-1.16c-.33-.24-.64-.51-.93-.8s-.55-.6-.8-.93c-1.02-1.38-1.55-3.03-1.55-4.75,0-3.21-2.61-5.82-5.82-5.82-.2,0-.4.01-.59.03-2.34.24-4.28,1.87-4.96,4.06-.17.55-.26,1.13-.26,1.73,0,.2.01.4.03.59.28,2.73,2.46,4.91,5.19,5.19Z"/>
        <path class="cls-1" d="M44.57,42.93c-1.72,0-3.36-.54-4.74-1.55-.66-.49-1.25-1.07-1.73-1.73-1.02-1.38-1.55-3.02-1.55-4.74,0-3.21-2.61-5.82-5.82-5.82s-5.82,2.61-5.82,5.82c0,1.72-.54,3.36-1.55,4.74-.49.67-1.07,1.25-1.72,1.73-1.38,1.02-3.03,1.55-4.75,1.55-3.21,0-5.82,2.61-5.82,5.82s2.61,5.82,5.82,5.82,5.82-2.61,5.82-5.82c0-1.72.54-3.36,1.55-4.75.48-.66,1.06-1.24,1.73-1.72,1.38-1.02,3.02-1.55,4.74-1.55s3.36.54,4.75,1.55c.66.48,1.24,1.06,1.72,1.72,1.02,1.38,1.55,3.03,1.55,4.75,0,3.21,2.61,5.82,5.82,5.82s5.82-2.61,5.82-5.82-2.61-5.82-5.82-5.82Z"/>
      </g>
      <g>
        <path class="cls-1" d="M109,5.7h0c-.79,0-1.45.65-1.45,1.45v17.89h-26.85V7.15c0-.8-.65-1.45-1.45-1.45h0c-.8,0-1.45.65-1.45,1.45v39.8c0,.17.14.31.31.31h2.27c.17,0,.31-.14.31-.31v-19.02h26.85v19.02c0,.17.14.31.31.31h2.27c.17,0,.31-.14.31-.31V7.15c0-.8-.65-1.45-1.45-1.45Z"/>
        <path class="cls-1" d="M143.79,21.38c-2.46-2.41-5.58-3.75-9.09-3.91-7.6-.34-14.45,5.11-15.68,12.62-1.56,9.5,5.77,17.75,14.98,17.75,4.05,0,7.87-1.58,10.74-4.45.06-.06.09-.14.09-.22l-.02-.15-1.68-1.68c-.12-.12-.32-.12-.44,0-2.32,2.32-5.4,3.6-8.69,3.6-6.43,0-11.76-4.95-12.26-11.33h26.25c.17,0,.31-.14.31-.31v-.66c0-.57-.03-1.12-.08-1.63-.35-3.75-1.92-7.17-4.43-9.63ZM134,20.34c5.87,0,10.47,4.26,11.28,10.38h-23.42c.93-5.94,6.1-10.38,12.15-10.38Z"/>
        <path class="cls-1" d="M173.58,18.14c-1.43-.5-2.94-.75-4.48-.75-4.01,0-7.82,1.77-10.33,4.77v-2.69c0-.8-.65-1.45-1.45-1.45h0c-.8,0-1.45.65-1.45,1.45v27.48c0,.17.14.31.31.31h2.27c.17,0,.31-.14.31-.31v-16.88c0-5.4,4.63-9.79,10.33-9.79,1.12,0,2.23.17,3.28.51.14.05.3-.01.38-.16l1-2.06c.04-.08.04-.17,0-.26l-.08-.14-.11-.04Z"/>
        <path class="cls-1" d="M192.95,17.58c-9.92-1.26-18.31,7.12-17.05,17.04.86,6.76,6.32,12.22,13.08,13.08,9.92,1.26,18.3-7.12,17.04-17.04-.86-6.76-6.32-12.23-13.08-13.09ZM192.58,44.84c-8.03,1.02-14.82-5.77-13.8-13.8.7-5.48,5.12-9.9,10.59-10.6,8.03-1.02,14.82,5.76,13.8,13.8-.7,5.48-5.12,9.9-10.59,10.6Z"/>
        <path class="cls-1" d="M215.24,18.02h0c-.8,0-1.45.65-1.45,1.45v27.48c0,.17.14.31.31.31h2.27c.17,0,.31-.14.31-.31v-27.48c0-.8-.65-1.45-1.45-1.45Z"/>
        <path class="cls-1" d="M215.83,6.25c-1.77-.43-3.34,1.13-2.91,2.91.2.83.89,1.52,1.72,1.72,1.77.43,3.34-1.13,2.91-2.91-.2-.83-.89-1.52-1.72-1.72Z"/>
        <path class="cls-1" d="M227.78,43.13c-1.77-.43-3.34,1.14-2.91,2.91.2.83.89,1.52,1.72,1.72,1.78.43,3.34-1.14,2.91-2.91-.2-.83-.89-1.52-1.72-1.72Z"/>
        <path class="cls-1" d="M254.07,5.7c-.94,0-1.79.55-2.17,1.4l-17.88,39.71c-.04.1-.04.21.02.3l.13.14h2.62c.12,0,.23-.07.28-.18l4.57-10.16h24.83l4.57,10.16c.05.11.16.18.28.18h2.49c.1,0,.2-.05.26-.14l.08-.17-17.93-39.84c-.38-.85-1.23-1.4-2.17-1.4h0ZM265.18,34.02h-22.23l11.11-24.7,11.11,24.7Z"/>
        <path class="cls-1" d="M281.76,18.02h0c-.8,0-1.45.65-1.45,1.45v27.48c0,.17.14.31.31.31h2.27c.17,0,.31-.14.31-.31v-27.48c0-.8-.65-1.45-1.45-1.45Z"/>
        <path class="cls-1" d="M282.36,6.25c-1.78-.43-3.34,1.14-2.91,2.91.2.83.89,1.52,1.72,1.72,1.77.43,3.34-1.14,2.91-2.91-.2-.83-.89-1.52-1.72-1.72Z"/>
      </g>
    </g>
  </g>
</svg>